<svg width="16" height="16" viewBox="0 0 16 16" fill="none" xmlns="http://www.w3.org/2000/svg">
<g clip-path="url(#clip0_2692_15945)">
<path d="M12.6667 0H3.33333C1.49238 0 0 1.49238 0 3.33333V12.6667C0 14.5076 1.49238 16 3.33333 16H12.6667C14.5076 16 16 14.5076 16 12.6667V3.33333C16 1.49238 14.5076 0 12.6667 0Z" fill="#0A66C2"/>
<path d="M4.80521 6.39896H6.27187V11.199H4.80521V6.39896ZM5.53854 4.26563C5.65235 4.26562 5.76505 4.28804 5.8702 4.3316C5.97535 4.37515 6.07089 4.43899 6.15137 4.51947C6.23185 4.59994 6.29568 4.69548 6.33924 4.80063C6.38279 4.90578 6.40521 5.01848 6.40521 5.13229C6.40521 5.2461 6.38279 5.3588 6.33924 5.46395C6.29568 5.5691 6.23185 5.66464 6.15137 5.74512C6.07089 5.82559 5.97535 5.88943 5.8702 5.93299C5.76505 5.97654 5.65235 5.99896 5.53854 5.99896C5.30869 5.99896 5.08825 5.90765 4.92572 5.74512C4.76318 5.58259 4.67188 5.36215 4.67188 5.13229C4.67188 4.90244 4.76318 4.682 4.92572 4.51947C5.08825 4.35693 5.30869 4.26563 5.53854 4.26563ZM7.27187 6.39896H8.67188V7.06562C8.87188 6.66563 9.40521 6.26562 10.2052 6.26562C11.6719 6.26562 12.0052 7.26562 12.0052 8.59896V11.199H10.5385V8.86562C10.5385 8.33229 10.5385 7.59896 9.73854 7.59896C9.00521 7.59896 8.87188 8.19896 8.87188 8.79896V11.199H7.40521V6.39896H7.27187Z" fill="white"/>
</g>
<defs>
<clipPath id="clip0_2692_15945">
<rect width="16" height="16" fill="white"/>
</clipPath>
</defs>
</svg>
